<?xml version="1.0" standalone="no"?>
<!DOCTYPE svg PUBLIC "-//W3C//DTD SVG 20010904//EN"
 "http://www.w3.org/TR/2001/REC-SVG-20010904/DTD/svg10.dtd">
<svg version="1.0" xmlns="http://www.w3.org/2000/svg"
 width="500.000000pt" height="500.000000pt" viewBox="0 0 500.000000 500.000000"
 preserveAspectRatio="xMidYMid meet">
<metadata>
Created by potrace 1.11, written by Peter Selinger 2001-2013
</metadata>
<g transform="translate(0.000000,500.000000) scale(0.100000,-0.100000)"
fill="#000000" stroke="none">
<path d="M374 4651 c-10 -2 -21 -7 -24 -11 -3 -5 -5 -967 -5 -2139 1 -1627 4
-2134 13 -2143 16 -16 4258 -18 4280 -2 14 10 16 234 16 2143 0 1638 -3 2134
-12 2143 -9 9 -503 12 -2130 13 -1165 0 -2127 -2 -2138 -4z m4221 -2151 l0
-2095 -2092 0 c-1151 -1 -2094 1 -2094 5 -3 10 -6 4175 -3 4180 1 3 944 5
2096 5 l2093 0 0 -2095z"/>
<path d="M802 3646 c-4 -7 -7 -1933 -3 -2044 1 -22 3 -23 104 -20 l102 3 0
475 0 475 488 3 487 2 0 85 0 85 -487 2 -488 3 0 375 0 375 578 3 577 2 1 23
c4 86 4 125 -2 142 -6 20 -15 20 -679 20 -400 0 -674 -4 -678 -9z"/>
<path d="M2494 3651 c-2 -3 -4 -273 -3 -600 1 -613 4 -666 44 -836 45 -191
155 -375 287 -479 76 -59 205 -122 303 -146 128 -32 365 -32 473 -1 18 5 33 9
35 9 8 -4 95 31 159 64 209 108 359 330 413 612 28 141 30 199 30 796 l0 585
-100 0 -100 -1 -2 -454 c-3 -736 -2 -694 -29 -883 -8 -61 -43 -166 -76 -232
-117 -233 -337 -351 -616 -332 -175 12 -286 60 -397 172 -106 105 -173 250
-200 427 -4 24 -9 54 -12 68 -3 14 -6 294 -8 624 -2 329 -7 601 -10 604 -7 8
-184 10 -191 3z"/>
</g>
</svg>
